<svg width="21" height="20" viewBox="0 0 21 20" fill="none" xmlns="http://www.w3.org/2000/svg">
    <path d="M15.2207 3.73142C13.9697 2.40937 12.2729 1.66666 10.5038 1.66666C8.73456 1.66666 7.03783 2.40937 5.78682 3.73142C4.53582 5.05346 3.83301 6.84654 3.83301 8.7162C3.83301 10.5859 4.53582 12.3789 5.78682 13.701L9.92986 18.0876C10.0029 18.1654 10.0899 18.2273 10.1857 18.2694C10.2815 18.3116 10.3843 18.3333 10.488 18.3333C10.5918 18.3333 10.6946 18.3116 10.7904 18.2694C10.8862 18.2273 10.9731 18.1654 11.0462 18.0876L15.2207 13.6594C16.4665 12.3429 17.1663 10.5573 17.1663 8.69543C17.1663 6.83357 16.4665 5.04796 15.2207 3.73142ZM14.0965 12.4714L10.5038 16.2847L6.91103 12.4714C6.20124 11.7206 5.71802 10.7643 5.52244 9.72336C5.32686 8.68241 5.4277 7.60355 5.81222 6.62316C6.19674 5.64276 6.84768 4.80485 7.68274 4.21534C8.51781 3.62583 9.49951 3.31119 10.5038 3.31119C11.508 3.31119 12.4897 3.62583 13.3248 4.21534C14.1598 4.80485 14.8108 5.64276 15.1953 6.62316C15.5798 7.60355 15.6807 8.68241 15.4851 9.72336C15.2895 10.7643 14.8063 11.7206 14.0965 12.4714ZM8.14529 6.16565C7.51064 6.83841 7.15426 7.74962 7.15426 8.69958C7.15426 9.64954 7.51064 10.5608 8.14529 11.2335C8.6168 11.7326 9.21728 12.0735 9.87141 12.2134C10.5255 12.3532 11.2042 12.2858 11.8222 12.0196C12.4402 11.7534 12.9701 11.3002 13.3453 10.717C13.7205 10.1337 13.9244 9.44636 13.9314 8.74112C13.9349 8.27023 13.8491 7.80337 13.679 7.36814C13.5088 6.93291 13.2578 6.53814 12.9408 6.20719C12.6293 5.87037 12.2577 5.60199 11.8476 5.41749C11.4375 5.23299 10.9969 5.13603 10.5512 5.13216C10.1055 5.1283 9.66351 5.21763 9.2506 5.395C8.83769 5.57236 8.46205 5.83427 8.14529 6.16565ZM11.8324 10.0538C11.5344 10.3734 11.1407 10.5738 10.7185 10.6206C10.2962 10.6674 9.87174 10.5578 9.51753 10.3104C9.16332 10.0631 8.90141 9.69341 8.77658 9.26459C8.65174 8.83577 8.67174 8.37444 8.83314 7.95947C8.99455 7.5445 9.28734 7.20167 9.66146 6.98958C10.0356 6.7775 10.4678 6.70933 10.8842 6.79674C11.3006 6.88415 11.6754 7.1217 11.9444 7.46878C12.2134 7.81586 12.36 8.25093 12.3591 8.69958C12.3476 9.21241 12.1441 9.69947 11.7931 10.0538H11.8324Z"
          fill="#5B5B5B" />
</svg>
