<svg width="22" height="22" viewBox="0 0 22 22" fill="none" xmlns="http://www.w3.org/2000/svg">
<path d="M5.64955 0.672443C5.84291 0.617443 6.0599 0.659982 6.21845 0.783732C6.72162 1.17346 7.09416 1.76256 7.13498 2.40752C7.17709 2.95709 6.96224 3.49678 6.6331 3.92819C6.37529 4.2844 5.98298 4.55037 5.83689 4.98049C5.7415 5.23014 5.81669 5.51073 5.9774 5.71526C6.10201 5.9026 6.33232 6.00186 6.41482 6.21971C6.55533 6.53338 6.39248 6.93815 6.0715 7.06319C5.84591 7.16202 5.57392 7.10916 5.38958 6.95018C4.88814 6.54455 4.52248 5.93912 4.50572 5.28342C4.47951 4.62471 4.81294 4.00553 5.25853 3.54104C5.50732 3.2785 5.78919 2.99877 5.84334 2.62365C5.88931 2.27905 5.65341 1.97697 5.39904 1.77459C5.14337 1.56319 5.10685 1.14983 5.31568 0.893732C5.3999 0.78717 5.51892 0.709396 5.64955 0.672443Z" fill="white"/>
<path d="M16.0067 0.67159C16.1992 0.617879 16.4149 0.660418 16.5726 0.782879C17.1102 1.19667 17.496 1.84249 17.4947 2.533C17.5008 3.16936 17.1768 3.7619 16.7479 4.2135C16.5039 4.47218 16.2276 4.74159 16.161 5.10639C16.097 5.45315 16.3294 5.76897 16.5868 5.97393C16.8562 6.18491 16.8975 6.61632 16.6766 6.87671C16.4764 7.13237 16.0772 7.18995 15.8138 7.00003C15.2621 6.59225 14.8646 5.93999 14.8599 5.24218C14.8487 4.59765 15.1774 3.99651 15.6136 3.54147C15.8628 3.2785 16.1451 2.99878 16.1988 2.62323C16.2448 2.27905 16.0089 1.97698 15.7549 1.77503C15.5169 1.57651 15.4658 1.20182 15.6351 0.944442C15.7197 0.811238 15.8555 0.713699 16.0067 0.67159Z" fill="white"/>
<path d="M1.82485 3.24758C2.00746 3.21407 2.20125 3.26477 2.34606 3.38079C2.86297 3.78555 3.23852 4.40258 3.25528 5.06946C3.27805 5.67145 2.99918 6.24422 2.61074 6.68938C2.35379 6.98329 2.0268 7.25227 1.93141 7.64844C1.8416 7.99821 2.06547 8.33422 2.32715 8.54434C2.54887 8.71106 2.64297 9.02473 2.5407 9.28426C2.43758 9.58462 2.08824 9.7668 1.78231 9.68301C1.54942 9.62028 1.38012 9.43336 1.21856 9.26579C0.815939 8.83524 0.575313 8.24141 0.627735 7.64844C0.674571 7.05333 0.998556 6.51536 1.40805 6.09512C1.6491 5.8429 1.9125 5.56661 1.96106 5.20524C2.00145 4.86536 1.77113 4.56758 1.5202 4.36735C1.2366 4.13962 1.22199 3.66782 1.48797 3.42075C1.58035 3.3318 1.69852 3.27036 1.82485 3.24758Z" fill="white"/>
<path d="M19.9547 3.24629C20.1369 3.21535 20.3298 3.26777 20.4729 3.38422C20.9988 3.79758 21.377 4.43308 21.3783 5.11371C21.3873 5.75223 21.0629 6.34648 20.6336 6.7998C20.3883 7.05933 20.1111 7.33004 20.0437 7.69613C19.9826 8.03558 20.2039 8.34754 20.4557 8.55035C20.7006 8.73555 20.7763 9.09992 20.6259 9.36719C20.4794 9.64906 20.1094 9.7814 19.8181 9.65422C19.6114 9.56012 19.4537 9.38781 19.3033 9.22324C18.9213 8.79742 18.6987 8.21949 18.7503 7.645C18.798 7.04687 19.1258 6.50805 19.5379 6.08695C19.7781 5.83516 20.0398 5.55758 20.0845 5.19621C20.1197 4.86191 19.8941 4.56973 19.6475 4.37207C19.4301 4.19547 19.3566 3.87148 19.4735 3.61754C19.5572 3.42246 19.7467 3.28066 19.9547 3.24629Z" fill="white"/>
<path d="M8.54047 5.70453C8.78367 5.14164 9.35258 4.73601 9.96531 4.69777C10.328 4.66469 10.6902 4.76953 11.0013 4.95215C11.2986 4.77555 11.6441 4.67285 11.9917 4.69476C12.5765 4.71797 13.1317 5.07203 13.4032 5.5898C13.6211 5.98082 13.6383 6.44746 13.5635 6.87972C13.4634 7.51437 13.1313 8.08887 12.7041 8.5598C13.09 8.63629 13.4754 8.71922 13.851 8.83824C16.0123 9.49008 17.9107 10.9416 19.14 12.8309C20.0449 14.2111 20.5756 15.828 20.6839 17.4737C20.9361 17.4797 21.1896 17.4616 21.4414 17.4827C21.7345 17.5141 21.9669 17.7706 22 18.0589V18.2841C21.9583 18.9243 21.7375 19.5546 21.346 20.0655C20.8545 20.7208 20.1064 21.1789 19.2964 21.3082C18.9836 21.3645 18.6648 21.3516 18.3485 21.3525C13.5077 21.3525 8.6668 21.3525 3.82594 21.3525C3.45211 21.3473 3.07441 21.3735 2.70402 21.3086C1.9134 21.181 1.18078 20.741 0.688359 20.1107C0.277148 19.5925 0.0425391 18.9453 0 18.2866V18.0593C0.0317969 17.7706 0.265977 17.5153 0.558594 17.4827C0.810391 17.4616 1.06348 17.4797 1.3157 17.4737C1.39691 16.2705 1.69727 15.0812 2.21289 13.9906C2.89008 12.5473 3.93508 11.281 5.21168 10.3275C6.41094 9.42906 7.82418 8.82406 9.29887 8.56066C8.8984 8.12324 8.58172 7.59558 8.46098 7.01035C8.37203 6.58023 8.35355 6.11273 8.54047 5.70453ZM9.6916 6.31812C9.67141 6.5291 9.71352 6.74222 9.78184 6.9416C9.99625 7.52898 10.4831 7.96597 11.0004 8.29082C11.3798 8.05449 11.7335 7.76316 11.987 7.39148C12.1997 7.08039 12.3359 6.70269 12.3088 6.32242C12.2775 6.07621 11.9913 5.91164 11.7623 6.00789C11.5865 6.06633 11.535 6.26785 11.3923 6.36926C11.1689 6.54586 10.829 6.54586 10.6064 6.36797C10.4642 6.2657 10.4118 6.06504 10.2356 6.00703C10.0087 5.91336 9.72512 6.07449 9.6916 6.31812ZM7.73738 10.3636C6.29063 10.9695 5.0252 11.9947 4.12156 13.2761C3.2493 14.5032 2.72551 15.9693 2.60648 17.4694C5.79176 17.4801 8.97703 17.4711 12.1619 17.4741C14.5724 17.4711 16.983 17.4797 19.3931 17.4698C19.3493 16.9984 19.2801 16.5288 19.1623 16.0699C18.7266 14.3185 17.7027 12.723 16.3011 11.5882C15.0816 10.5931 13.5777 9.94812 12.0136 9.76551C10.5686 9.58976 9.07758 9.79301 7.73738 10.3636ZM1.39691 18.7632C1.59457 19.317 2.04875 19.7712 2.60691 19.9594C2.84582 20.0432 3.1002 20.069 3.35199 20.0638C8.49492 20.0625 13.6379 20.0651 18.7804 20.0625C19.5839 20.0694 20.3401 19.5186 20.6035 18.7636C14.2012 18.7627 7.79926 18.7632 1.39691 18.7632Z" fill="white"/>
</svg>
