<svg width="22" height="22" viewBox="0 0 22 22" fill="none" xmlns="http://www.w3.org/2000/svg">
<g clip-path="url(#clip0_1720_4318)">
<path d="M10.8565 0H11.0662C12.0209 0.0214844 12.9684 0.342891 13.7234 0.930703C14.6171 1.61219 15.2432 2.6357 15.4365 3.74344C15.5216 4.22383 15.5405 4.72055 15.437 5.19922C17.4109 5.20051 19.3849 5.19621 21.3585 5.20137C21.6739 5.19535 21.9433 5.4493 22 5.7518V21.3838C21.9858 21.7082 21.7087 21.9858 21.3843 22H2.47457C1.8773 21.9682 1.29293 21.7289 0.855508 21.3194C0.333867 20.8437 0.0223437 20.1532 0 19.4481V5.13047C0.0201953 4.17355 0.61875 3.2609 1.48973 2.8643C1.8932 2.66879 2.34695 2.60734 2.79168 2.62066C3.04734 2.6327 3.32965 2.57426 3.55867 2.7182C3.76105 2.83852 3.87621 3.07398 3.86676 3.30687C3.86805 3.93766 3.86633 4.56844 3.86719 5.19922C4.76566 5.19922 5.66457 5.19922 6.56305 5.19922C6.45949 4.72012 6.4784 4.22297 6.56348 3.74258C6.75211 2.66406 7.35023 1.66633 8.2066 0.985273C8.95297 0.379844 9.89871 0.0416797 10.8565 0ZM10.0981 1.42227C9.53391 1.5877 9.01957 1.91512 8.62684 2.35168C8.06523 2.96828 7.7507 3.80789 7.78465 4.64234C7.84223 5.31523 8.18598 5.91379 8.49535 6.49902C9.20863 7.75328 10.0899 8.90055 11 10.0164C11.9092 8.90055 12.7918 7.755 13.5038 6.50031C13.8071 5.92797 14.1393 5.34359 14.2115 4.68789C14.2884 3.47574 13.6 2.26316 12.5344 1.68609C11.8009 1.27746 10.902 1.18121 10.0981 1.42227ZM1.55289 4.42535C1.36426 4.66941 1.28305 4.98094 1.28906 5.28645C1.28949 9.24 1.28863 13.1936 1.28949 17.1471C1.68137 16.9245 2.12738 16.8059 2.57812 16.8008C2.57812 12.5039 2.57812 8.2066 2.5777 3.90973C2.18195 3.91918 1.78879 4.10352 1.55289 4.42535ZM3.86719 6.48828C3.86676 10.1264 3.86762 13.7642 3.86676 17.4023C3.88695 17.7139 3.65965 18.0194 3.34984 18.0748C2.93906 18.1277 2.50508 18.0228 2.1102 18.1831C1.65473 18.3537 1.32516 18.8053 1.2968 19.2904C1.25125 19.8567 1.61305 20.4269 2.14543 20.6263C2.3925 20.7243 2.6632 20.7114 2.92402 20.7109C8.85285 20.7109 14.7821 20.7109 20.7109 20.7109C20.7109 15.9702 20.7109 11.229 20.7109 6.48828C18.7962 6.49 16.882 6.48441 14.9677 6.49129C14.2837 7.88734 13.3482 9.14074 12.3862 10.355C13.6284 10.3568 14.8706 10.3538 16.1129 10.3568C16.5511 10.358 16.9937 10.4913 17.3383 10.7675C17.7577 11.0898 18.0353 11.5925 18.0752 12.1211C18.1255 12.6388 17.9498 13.1734 17.6034 13.5609C17.2356 13.9898 16.6727 14.2261 16.1111 14.2214C13.7913 14.2244 11.4714 14.2218 9.15148 14.2227C8.90957 14.2209 8.66379 14.2648 8.45109 14.3842C8.08371 14.5797 7.82891 14.966 7.78895 15.3798C7.74082 15.8086 7.92902 16.2551 8.26977 16.5198C8.50566 16.7084 8.80773 16.8012 9.10809 16.7999C10.1548 16.8025 11.2011 16.7995 12.2478 16.8012C12.4708 16.7918 12.696 16.8966 12.8202 17.0839C13.0139 17.3538 12.9452 17.7654 12.6754 17.9588C12.5065 18.0963 12.28 18.095 12.0742 18.0903C11.1568 18.0894 10.2395 18.0898 9.32207 18.0898C9.0041 18.0946 8.68184 18.0834 8.37461 17.9936C7.54145 17.7676 6.85051 17.0925 6.60258 16.2658C6.39461 15.5912 6.47797 14.832 6.83633 14.2231C7.27461 13.4522 8.1327 12.943 9.02043 12.9357C11.3996 12.9293 13.7788 12.9375 16.158 12.9319C16.5004 12.9387 16.8077 12.632 16.7986 12.2891C16.8077 11.9453 16.4991 11.6385 16.1562 11.6463C14.4366 11.6407 12.717 11.6484 10.9974 11.6424C10.7641 11.6458 10.5604 11.5032 10.4268 11.3218C10.0547 10.8745 9.66195 10.4436 9.31734 9.97391C8.45969 8.87992 7.6493 7.73867 7.03141 6.49043C5.97652 6.4857 4.92207 6.48957 3.86719 6.48828Z" fill="white"/>
<path d="M10.9175 2.58672C11.3782 2.56609 11.8448 2.72164 12.198 3.01855C12.6101 3.35242 12.8782 3.85859 12.919 4.38754C12.9646 4.86578 12.8198 5.35992 12.5216 5.73675C12.2001 6.15484 11.6996 6.43242 11.1728 6.47324C10.6846 6.52093 10.1785 6.37054 9.79777 6.05988C9.37968 5.73074 9.10898 5.21984 9.07804 4.68789C9.00542 3.8268 9.57175 2.95797 10.3937 2.68726C10.5617 2.62582 10.7396 2.59789 10.9175 2.58672ZM10.8449 3.89125C10.5085 3.9875 10.2885 4.36906 10.3761 4.70851C10.4466 5.02047 10.7753 5.24433 11.092 5.19019C11.416 5.15109 11.6721 4.83355 11.6407 4.50828C11.6248 4.125 11.2308 3.77523 10.8449 3.89125Z" fill="white"/>
<path d="M14.4354 15.6814C14.6666 15.4593 15.0666 15.4584 15.2982 15.6806C15.5887 15.9603 15.8688 16.2504 16.1563 16.5331C16.4442 16.2499 16.7248 15.9595 17.0157 15.6797C17.2559 15.4494 17.6748 15.4619 17.9013 15.7046C18.1402 15.932 18.15 16.3466 17.9223 16.5855C17.6426 16.8764 17.3517 17.1574 17.0685 17.4453C17.3513 17.7323 17.6404 18.0125 17.9202 18.3025C18.1518 18.5423 18.1402 18.963 17.897 19.1903C17.6697 19.4288 17.255 19.4395 17.0165 19.2118C16.7252 18.9316 16.4442 18.6407 16.1563 18.3575C15.8693 18.6403 15.5887 18.9299 15.2986 19.2092C15.0593 19.4404 14.6399 19.4296 14.4126 19.1873C14.1716 18.9591 14.1621 18.541 14.3924 18.3025C14.6722 18.0125 14.9613 17.7323 15.2441 17.4453C14.9613 17.1579 14.6713 16.8777 14.392 16.5872C14.1535 16.3406 14.175 15.9045 14.4354 15.6814Z" fill="white"/>
</g>
<defs>
<clipPath id="clip0_1720_4318">
<rect width="22" height="22" fill="white"/>
</clipPath>
</defs>
</svg>
