<svg width="22" height="22" viewBox="0 0 22 22" fill="none" xmlns="http://www.w3.org/2000/svg">
<g clip-path="url(#clip0_1720_4331)">
<path d="M4.24488 0H4.7691C5.43941 0.0614453 6.10543 0.231602 6.69453 0.56418C7.73094 1.13223 8.52328 2.12695 8.84555 3.26434C9.05867 4.00469 9.07328 4.79961 8.89324 5.54855C9.99711 6.65973 11.1079 7.76445 12.2147 8.87262C13.8149 7.27547 15.4116 5.67531 17.0113 4.07773C17.0796 4.02918 17.062 3.94066 17.0663 3.86848C17.0637 3.40871 17.0646 2.94895 17.065 2.48918C17.0586 2.27863 17.1591 2.0698 17.3306 1.94648C18.1049 1.36383 18.8818 0.785039 19.6552 0.201523C19.7716 0.106563 19.9048 0.0322266 20.0531 0H20.2095C20.4011 0.0266406 20.5623 0.140078 20.689 0.280586C21.059 0.654414 21.4337 1.02352 21.8036 1.39777C21.9106 1.50133 21.9712 1.64141 22 1.78578V1.93574C21.9729 2.06508 21.9196 2.1884 21.8376 2.29195C21.2489 3.07613 20.6602 3.86031 20.0729 4.64492C19.962 4.80262 19.7867 4.91734 19.592 4.93066C19.0519 4.95258 18.5071 4.91305 17.9695 4.94957C16.3488 6.55402 14.7417 8.17395 13.1274 9.7857C14.2355 10.8917 15.3407 12.0007 16.4493 13.1059C17.426 12.8696 18.4809 12.9714 19.3914 13.3977C20.5859 13.9498 21.5166 15.0477 21.8436 16.3251C21.9364 16.6676 21.982 17.0212 22 17.3748V17.603C21.9794 18.1414 21.8745 18.6785 21.6709 19.1787C21.5922 19.3686 21.5153 19.5817 21.3305 19.6947C21.0848 19.861 20.7286 19.8249 20.5227 19.6109C19.8146 18.9058 19.1099 18.1977 18.4022 17.4921C18.0989 17.7959 17.7938 18.0984 17.4917 18.4039C18.2037 19.1181 18.9204 19.8279 19.6294 20.5451C19.8997 20.8179 19.8335 21.3245 19.5027 21.5196C18.9655 21.8075 18.3601 21.9411 17.7573 22H17.2292C16.497 21.9343 15.77 21.7319 15.1422 21.3426C14.4027 20.8944 13.8003 20.2262 13.4243 19.4485C12.9757 18.526 12.8631 17.4475 13.105 16.4514C12.0012 15.3407 10.8913 14.236 9.78441 13.1278C9.46688 13.4466 9.14676 13.7625 8.83094 14.0834C9.1893 14.4057 9.46258 14.8367 9.52488 15.3214C9.59492 15.7945 9.48234 16.2925 9.21164 16.6873C9.0866 16.8743 8.92074 17.0285 8.76305 17.1866C7.34551 18.6033 5.93012 20.0217 4.51129 21.4371C4.18645 21.7641 3.74301 21.9553 3.28625 22H3.02973C2.72594 21.9704 2.4243 21.8879 2.16219 21.7293C1.90395 21.5815 1.70543 21.3563 1.49617 21.1496C1.17391 20.8261 0.848633 20.506 0.529375 20.1798C0.217422 19.8563 0.0378125 19.421 0 18.9754V18.6905C0.0524219 18.2424 0.239766 17.8071 0.56332 17.4883C2.0509 15.999 3.53977 14.5105 5.02863 13.023C5.4884 12.5546 6.19523 12.3509 6.83418 12.5043C7.26086 12.592 7.62738 12.8528 7.91742 13.1695C8.23711 12.8528 8.55508 12.5344 8.87219 12.2152C7.76445 11.1087 6.6593 10.0001 5.5507 8.89539C4.68102 9.10207 3.75031 9.05008 2.91457 8.73039C1.8034 8.31273 0.870977 7.43918 0.392305 6.35207C0.162852 5.8459 0.0464063 5.29719 0 4.74547V4.3175C0.0378125 3.69789 0.180469 3.07914 0.463633 2.52441C0.64668 2.1725 1.17348 2.09043 1.45492 2.37059C2.1725 3.07957 2.88191 3.79672 3.59691 4.50871C3.90113 4.20535 4.20492 3.90199 4.50785 3.59734C3.85215 2.94121 3.19645 2.28551 2.54031 1.6298C2.42473 1.51336 2.29195 1.40121 2.23781 1.24094C2.13039 0.958203 2.25543 0.608008 2.52355 0.464922C3.05637 0.189492 3.65062 0.0562891 4.24488 0ZM4.05969 1.32172C4.66813 1.94219 5.29074 2.54891 5.89961 3.16895C6.12863 3.41473 6.11059 3.83324 5.86652 4.0627C5.2568 4.67199 4.64922 5.28301 4.03734 5.89016C3.80488 6.11574 3.40313 6.12004 3.16637 5.89875C2.54719 5.29246 1.94691 4.66641 1.32129 4.06656C1.2143 4.80691 1.38016 5.58164 1.77633 6.21586C2.15016 6.81785 2.7298 7.28965 3.39539 7.53371C4.05152 7.77648 4.78801 7.79324 5.45574 7.58355C5.60871 7.5307 5.77801 7.50277 5.93484 7.55777C6.10801 7.60805 6.22918 7.74812 6.35207 7.87102C8.99379 10.5132 11.6359 13.1545 14.2768 15.7975C14.4646 15.9758 14.5187 16.2628 14.4285 16.5026C14.2085 17.1759 14.2171 17.9223 14.4598 18.5883C14.7237 19.3213 15.2642 19.95 15.9504 20.3195C16.5339 20.64 17.2184 20.7646 17.8784 20.6877C17.9511 20.6907 17.89 20.6121 17.8608 20.5945C17.2799 20.0153 16.6994 19.4356 16.1206 18.8543C15.8808 18.6205 15.8761 18.2003 16.1111 17.9614C16.7114 17.3568 17.316 16.7565 17.9171 16.1528C18.1586 15.8731 18.6304 15.8675 18.877 16.1425C19.4683 16.732 20.0557 17.3254 20.6491 17.9124C20.7152 17.9261 20.677 17.8273 20.6955 17.7938C20.7539 17.1583 20.6233 16.506 20.3165 15.9461C19.9409 15.2522 19.2998 14.7073 18.5539 14.4491C17.8819 14.2111 17.1334 14.2158 16.4587 14.4418C16.1966 14.532 15.9062 14.4233 15.7334 14.2154C13.0638 11.5423 10.3903 8.87219 7.71934 6.19996C7.51137 6.00488 7.48301 5.6882 7.58957 5.43426C7.8057 4.72742 7.76918 3.94539 7.48086 3.26434C7.18566 2.55621 6.62793 1.96109 5.93871 1.62379C5.36164 1.33719 4.69777 1.23234 4.05969 1.32172ZM18.3515 2.79598C18.3571 3.07957 18.3524 3.36273 18.3541 3.64633C18.639 3.64719 18.9234 3.6459 19.2083 3.64719C19.6389 3.06883 20.0819 2.49863 20.5012 1.91254C20.3543 1.77891 20.2237 1.62766 20.0733 1.49789C19.5027 1.93445 18.9213 2.3577 18.3515 2.79598ZM5.94215 13.9318C4.90918 14.9639 3.87664 15.9964 2.84453 17.0289C3.55309 17.7379 4.2625 18.4465 4.97106 19.1555C6.00359 18.1234 7.03656 17.0917 8.06781 16.0583C8.31016 15.8241 8.31789 15.4009 8.08199 15.1598C7.71289 14.7855 7.33863 14.4164 6.96824 14.0435C6.87457 13.9498 6.78219 13.8471 6.65672 13.7973C6.41996 13.6903 6.12434 13.7479 5.94215 13.9318ZM1.45191 18.4246C1.22504 18.6682 1.24137 19.0846 1.48242 19.3132C1.89148 19.7214 2.29883 20.1317 2.70961 20.5382C2.94078 20.7608 3.33867 20.7655 3.575 20.5485C3.74043 20.3921 3.8977 20.2275 4.05883 20.0673C3.3507 19.3579 2.64215 18.6493 1.93273 17.9412C1.77246 18.1023 1.60875 18.26 1.45191 18.4246Z" fill="white"/>
</g>
<defs>
<clipPath id="clip0_1720_4331">
<rect width="22" height="22" fill="white"/>
</clipPath>
</defs>
</svg>
